<svg width="1761" height="690" viewBox="0 0 1761 690" fill="none" xmlns="http://www.w3.org/2000/svg">
<g clip-path="url(#clip0_12_3)">
<path d="M711.74 689.98C711.3 688.99 710.36 689.09 709.54 689.04C706.55 688.86 703.54 688.87 700.57 688.56C682.43 686.7 664.9 682.2 647.82 675.91C628.05 668.63 609.39 659.08 591.38 648.21C570.93 635.86 551.57 621.95 532.67 607.36C510.28 590.07 488.64 571.85 466.92 553.73C446.52 536.71 426.08 519.73 404.86 503.72C386.6 489.95 367.83 476.93 347.92 465.63C330.11 455.53 311.63 446.94 291.97 441.05C278.94 437.14 265.67 434.59 252.08 433.52C224.29 431.32 197.77 436.37 172.19 447C153.08 454.94 135.59 465.69 119.09 478.09C102.03 490.91 86.39 505.32 71.62 520.69C58.15 534.71 45.53 549.47 33.43 564.69C32.63 565.69 31.78 566.66 30.92 567.61C30.76 567.79 30.43 567.8 29.86 568C29.79 567.46 29.58 566.95 29.71 566.54C30.07 565.31 30.52 564.1 31.01 562.92C47.97 522.35 65.23 481.92 84.16 442.22C99.1 410.89 115 380.06 132.98 350.35C148.38 324.9 165.21 300.45 184.46 277.72C203.47 255.28 224.52 235.03 248.54 217.96C280.75 195.06 316.21 179.56 354.86 171.3C368.14 168.46 381.52 166.3 395.07 165.3C403.04 164.71 411.03 164.3 419.01 163.83C419.86 163.78 420.71 163.82 422.05 163.82C421.61 164.59 421.48 165.18 421.14 165.36C419.89 166.03 418.57 166.6 417.26 167.16C403.37 173.15 389.41 179.02 375.58 185.16C353.71 194.87 332.99 206.58 313.74 220.86C290.53 238.08 270.35 258.4 252.39 280.97C233.57 304.63 217.62 330.16 203.45 356.82C199.97 363.37 196.66 370.02 193.31 376.65C192.62 378.01 191.79 379.35 191.68 380.88C193.01 381.82 194 380.9 195.02 380.57C201.54 378.48 207.98 376.1 214.57 374.26C232.48 369.27 250.78 367.6 269.31 368.83C286.51 369.97 303.17 373.79 319.46 379.36C340.08 386.41 359.55 395.91 378.38 406.81C402.78 420.93 425.76 437.14 448.1 454.28C470.55 471.51 492.1 489.82 513.41 508.43C539.99 531.65 567.26 554.02 595.98 574.59C614.46 587.83 633.51 600.17 653.6 610.83C670.79 619.96 688.59 627.63 707.34 632.99C727.05 638.63 747.15 640.65 767.55 639.22C781.85 638.22 795.76 634.96 809.35 630.41C825.79 624.91 841.38 617.5 856.5 609.09C876.12 598.17 894.86 585.87 913.17 572.91C925.76 564 938.2 554.87 950.71 545.85C952.21 544.77 953.74 543.71 955.32 542.74C955.69 542.51 956.31 542.71 956.88 542.71C956.69 544.52 955.5 545.46 954.6 546.51C946.86 555.49 939.24 564.58 931.25 573.33C912.14 594.24 891.78 613.84 869.44 631.32C850.82 645.88 831.14 658.76 809.72 668.87C791.94 677.26 773.48 683.52 754.08 686.89C748.32 687.89 742.55 688.89 736.65 688.78C735.09 688.75 733.51 688.95 731.96 689.16C731.48 689.23 731.05 689.69 730.59 689.97C724.32 689.98 718.03 689.98 711.74 689.98Z" fill="#0A0A0A"/>
<path d="M269.36 0C269.86 0.24 270.34 0.600002 270.86 0.690002C288.86 3.88 300.21 14.84 305.7 31.74C310.97 47.97 308.46 63.42 298.26 77.25C289.68 88.88 277.82 94.25 263.47 94.2C258.86 94.18 254.41 93.07 250.18 91.21C239.26 86.39 231.11 78.68 226.53 67.6C220.01 51.85 220.6 36.4 229.32 21.54C235.73 10.61 245.22 3.81 257.56 0.970001C258.65 0.720001 259.71 0.33 260.78 0C263.64 0 266.5 0 269.36 0Z" fill="#0A0A0A"/>
<path d="M587.36 366.64C587.36 338.79 587.39 310.93 587.34 283.08C587.33 275.75 588.06 268.54 590.05 261.48C591.18 257.48 592.73 253.65 594.7 249.99C602.04 236.42 613.34 228.31 628.48 225.47C632.14 224.78 635.82 224.43 639.55 224.43C682.27 224.43 724.99 224.41 767.71 224.41C769.13 224.41 770.58 224.47 771.97 224.71C773.52 224.98 774.51 226.01 774.72 227.6C774.87 228.73 774.9 229.88 774.91 231.01C774.92 243.01 774.93 255.01 774.91 267.01C774.9 272.94 774.26 273.56 768.2 273.56C729.19 273.57 690.19 273.56 651.18 273.57C649.47 273.57 647.74 273.51 646.04 273.66C643.58 273.87 642.5 275.02 642.3 277.49C642.2 278.63 642.22 279.77 642.22 280.92C642.22 295.92 642.21 310.92 642.22 325.91C642.22 327.19 642.21 328.49 642.37 329.76C642.57 331.34 643.56 332.33 645.14 332.61C645.98 332.76 646.84 332.82 647.7 332.84C649.13 332.88 650.56 332.87 651.99 332.87C686.99 332.87 722 332.87 757 332.88C759 332.88 761 332.94 762.98 333.17C764.67 333.37 765.47 334.3 765.66 336.01C765.79 337.14 765.77 338.29 765.77 339.43C765.77 352.14 765.75 364.86 765.74 377.57C765.74 378 765.75 378.43 765.73 378.86C765.6 382.95 764.82 383.72 760.58 383.88C759.01 383.94 757.44 383.91 755.87 383.91C720.72 383.91 685.58 383.91 650.43 383.92C648.72 383.92 646.99 383.91 645.3 384.12C643.49 384.35 642.55 385.42 642.33 387.25C642.21 388.24 642.22 389.25 642.22 390.24C642.21 406.67 642.22 423.09 642.22 439.52C642.22 440.66 642.25 441.81 642.34 442.94C642.46 444.56 643.38 445.59 644.95 445.92C646.06 446.16 647.2 446.29 648.33 446.33C650.04 446.39 651.76 446.32 653.47 446.33C691.47 446.35 729.48 446.37 767.48 446.39C769.05 446.39 770.62 446.43 772.19 446.55C773.47 446.65 774.3 447.47 774.56 448.69C774.79 449.8 774.9 450.95 774.9 452.08C774.92 464.51 774.95 476.93 774.9 489.36C774.88 494.57 774.09 495.28 768.92 495.35C767.49 495.37 766.06 495.36 764.63 495.36C720.2 495.36 675.76 495.36 631.33 495.36C630.47 495.36 629.61 495.3 628.76 495.37C616.47 496.3 606.92 490.81 598.83 482.29C593.32 476.49 589.56 469.61 587.98 461.71C587.45 459.08 587.38 456.32 587.38 453.62C587.35 424.63 587.36 395.63 587.36 366.64Z" fill="#0A0A0A"/>
<path d="M893.26 495.36C871.4 495.36 849.55 495.36 827.69 495.36C825.98 495.36 824.25 495.39 822.55 495.23C820.63 495.05 819.75 494.16 819.45 492.28C819.29 491.3 819.25 490.29 819.25 489.29C819.24 477.15 819.22 465.01 819.25 452.87C819.27 446.82 819.73 446.35 825.87 446.34C846.3 446.31 866.72 446.32 887.15 446.32C905.43 446.33 923.72 446.36 942 446.35C943.56 446.35 945.13 446.15 946.68 445.93C949.18 445.57 951.25 444.35 952.92 442.48C957.46 437.39 960.9 431.71 962.41 424.98C962.57 424.28 962.8 423.59 962.83 422.89C963.17 415.33 963.6 407.73 962.04 400.26C960.54 393.05 956.47 387.77 949.3 385.41C946.34 384.43 943.23 383.74 940.13 383.4C935.74 382.92 931.3 382.71 926.88 382.69C913.17 382.6 899.46 382.66 885.74 382.65C876.54 382.65 867.51 381.39 858.68 378.84C843.38 374.43 831.7 365.56 824.54 351.07C820.33 342.55 817.56 333.61 815.97 324.26C814.2 313.78 813.73 303.24 814.64 292.68C815.28 285.29 816.45 277.96 818.71 270.84C823.46 255.86 832.24 243.9 845.36 235.21C848.33 233.24 851.44 231.47 854.56 229.75C861.32 226.02 868.56 224.3 876.33 224.36C894.9 224.49 913.47 224.4 932.04 224.4C953.04 224.4 974.04 224.4 995.04 224.4C996.61 224.4 998.18 224.42 999.75 224.51C1001.38 224.61 1002.4 225.56 1002.72 227.12C1002.95 228.23 1003.05 229.38 1003.05 230.52C1003.08 242.8 1003.08 255.08 1003.06 267.36C1003.06 268.49 1002.91 269.64 1002.69 270.75C1002.38 272.33 1001.31 273.25 999.73 273.4C998.17 273.54 996.59 273.55 995.02 273.55C961.02 273.56 927.02 273.67 893.03 273.45C886.84 273.41 882.32 275.54 878.56 280.16C874.58 285.06 871.98 290.44 871.59 296.85C871.22 302.86 871.49 308.85 872.22 314.8C872.46 316.76 873.03 318.74 873.81 320.55C876.5 326.77 881.58 329.84 888.08 330.76C890.76 331.14 893.48 331.35 896.19 331.39C906.62 331.53 917.04 331.58 927.47 331.63C934.18 331.66 940.9 331.63 947.61 331.65C956.23 331.68 964.69 332.94 972.99 335.17C983 337.86 991.64 342.98 999.06 350.18C1002.48 353.49 1005.14 357.37 1007.4 361.53C1013.14 372.08 1016.34 383.39 1017.8 395.28C1018.85 403.82 1018.86 412.38 1018.74 420.94C1018.7 424.06 1018.11 427.18 1017.74 430.29C1016.53 440.42 1014.11 450.21 1009.54 459.4C1004.41 469.72 997.27 478.3 987.53 484.56C983.81 486.95 979.99 489.2 976.1 491.29C970.72 494.18 964.94 495.41 958.79 495.38C936.97 495.3 915.12 495.36 893.26 495.36Z" fill="#0A0A0A"/>
<path d="M1437.65 499.71C1409.36 499.71 1381.08 499.71 1352.79 499.71C1351.5 499.71 1350.21 499.76 1348.93 499.66C1346.71 499.49 1345.65 498.39 1345.43 496.12C1345.35 495.27 1345.39 494.41 1345.39 493.55C1345.39 470.41 1345.34 447.27 1345.41 424.14C1345.44 413.94 1346.76 403.94 1350.39 394.31C1354.21 384.19 1360.17 375.64 1368.57 368.81C1370.9 366.92 1373.32 365.15 1375.68 363.3C1382.51 357.97 1390.12 354.09 1398.34 351.46C1407.44 348.54 1416.61 345.81 1425.72 342.92C1432.66 340.72 1439.58 338.47 1446.46 336.09C1451.87 334.22 1457.01 331.73 1461.99 328.91C1465.98 326.65 1469.64 323.94 1473.08 320.89C1481.88 313.08 1484.35 303.41 1481.84 292.17C1480.51 286.24 1477.54 281.34 1472.88 277.46C1469.23 274.43 1465.02 272.87 1460.31 272.63C1458.46 272.53 1456.6 272.56 1454.74 272.56C1423.45 272.56 1392.16 272.56 1360.88 272.56C1359.59 272.56 1358.3 272.61 1357.02 272.51C1354.89 272.35 1353.89 271.43 1353.6 269.39C1353.46 268.41 1353.46 267.4 1353.46 266.4C1353.45 254.55 1353.45 242.69 1353.46 230.84C1353.46 229.7 1353.48 228.55 1353.66 227.43C1353.92 225.78 1354.86 224.88 1356.49 224.67C1357.48 224.54 1358.49 224.57 1359.48 224.57C1392.77 224.57 1426.06 224.57 1459.34 224.56C1465.94 224.56 1472.5 225.11 1478.87 226.78C1504.27 233.42 1521.34 249.3 1530.37 273.83C1533.75 283.02 1535.27 292.57 1535.04 302.41C1534.84 310.98 1534.65 319.55 1533.06 328C1532.4 331.5 1531.59 334.99 1530.53 338.38C1527.71 347.34 1522.51 354.72 1515.24 360.66C1510.45 364.57 1505.19 367.7 1499.6 370.31C1486.78 376.31 1473.51 381.18 1460.14 385.75C1452.44 388.38 1444.67 390.78 1436.99 393.48C1432.01 395.23 1427.12 397.23 1422.26 399.29C1418.3 400.96 1414.67 403.24 1411.35 405.99C1407.37 409.29 1405.31 413.48 1405.32 418.68C1405.34 427.96 1405.32 437.25 1405.32 446.53C1405.32 447.1 1405.3 447.68 1405.37 448.24C1405.63 450.47 1406.68 451.51 1408.98 451.68C1410.26 451.78 1411.55 451.73 1412.84 451.73C1449.41 451.73 1485.99 451.73 1522.56 451.73C1523.99 451.73 1525.42 451.68 1526.84 451.81C1528.67 451.98 1529.65 452.94 1529.95 454.79C1530.13 455.91 1530.15 457.06 1530.15 458.2C1530.16 469.91 1530.17 481.62 1530.15 493.34C1530.14 499.14 1529.55 499.72 1523.79 499.72C1495.08 499.72 1466.37 499.71 1437.65 499.71Z" fill="#0A0A0A"/>
<path d="M1598.82 406.93C1625.02 406.93 1650.58 406.93 1676.13 406.92C1676.67 406.92 1677.21 406.71 1677.75 406.6C1678.51 404.84 1678.22 403.11 1678.22 401.43C1678.24 376.15 1678.23 350.86 1678.24 325.58C1678.24 324.29 1678.19 323 1678.27 321.72C1678.44 319.17 1679.01 318.45 1681.5 317.96C1687.24 316.83 1693 315.76 1698.75 314.7C1706.05 313.35 1713.35 312.02 1720.66 310.68C1721.22 310.58 1721.78 310.43 1722.35 310.38C1724.74 310.18 1726.55 311.61 1726.79 313.97C1726.92 315.24 1726.86 316.54 1726.86 317.82C1726.86 345.68 1726.86 373.53 1726.87 401.39C1726.87 403.07 1726.64 404.79 1727.16 406.36C1728.63 407.27 1730.09 406.91 1731.48 406.92C1738.77 406.96 1746.05 406.94 1753.34 406.94C1754.48 406.94 1755.63 406.9 1756.77 407.01C1758.97 407.24 1760.38 408.91 1760.25 411.09C1760.21 411.8 1760.03 412.5 1759.88 413.2C1757.74 423.4 1755.59 433.59 1753.45 443.79C1752.51 448.28 1752.32 448.46 1747.88 448.49C1742.45 448.52 1737.02 448.49 1731.59 448.51C1730.19 448.52 1728.79 448.63 1727.33 448.7C1726.61 450.4 1726.87 451.98 1726.87 453.51C1726.85 467.8 1726.86 482.08 1726.85 496.37C1726.85 497.51 1726.9 498.66 1726.79 499.8C1726.59 501.88 1725.35 503.16 1723.27 503.5C1722.57 503.61 1721.85 503.62 1721.13 503.62C1708.84 503.63 1696.55 503.63 1684.26 503.62C1683.55 503.62 1682.83 503.63 1682.12 503.53C1679.81 503.21 1678.58 501.97 1678.31 499.6C1678.18 498.47 1678.23 497.32 1678.23 496.18C1678.23 482.04 1678.23 467.9 1678.22 453.75C1678.22 452.2 1678.15 450.65 1678.12 449.33C1676.69 448.23 1675.36 448.54 1674.1 448.53C1665.38 448.5 1656.67 448.51 1647.95 448.51C1616.09 448.51 1584.22 448.51 1552.36 448.51C1550.93 448.51 1549.5 448.55 1548.08 448.43C1545.97 448.25 1544.69 447.03 1544.4 444.93C1544.25 443.81 1544.3 442.65 1544.3 441.51C1544.29 433.22 1544.38 424.94 1544.25 416.65C1544.2 413.67 1544.93 411.13 1546.44 408.57C1562.55 381.27 1578.59 353.92 1594.64 326.58C1614.16 293.33 1633.66 260.07 1653.22 226.84C1656.38 221.47 1655.23 221.62 1662.21 221.63C1673.78 221.63 1685.36 221.63 1696.93 221.63C1698.21 221.63 1699.5 221.72 1700.78 221.7C1703.26 221.66 1705.36 225.16 1703.74 227.4C1703.16 228.21 1702.73 229.12 1702.22 229.98C1668.59 287.24 1634.95 344.49 1601.32 401.75C1600.51 403.2 1599.49 404.57 1598.82 406.93Z" fill="#0A0A0A"/>
<path d="M1173.2 384.82C1173.2 419.1 1173.2 453.38 1173.19 487.66C1173.19 489.23 1173.16 490.8 1173 492.36C1172.83 493.97 1171.77 494.91 1170.21 495.16C1169.23 495.32 1168.22 495.34 1167.22 495.34C1152.93 495.35 1138.65 495.37 1124.36 495.34C1119.12 495.33 1118.46 494.63 1118.35 489.41C1118.32 487.98 1118.34 486.55 1118.34 485.13C1118.34 417.57 1118.34 350.01 1118.34 282.45C1118.34 280.74 1118.38 279.01 1118.22 277.31C1117.98 274.76 1117 273.84 1114.38 273.61C1113.1 273.5 1111.81 273.55 1110.53 273.55C1092.53 273.55 1074.53 273.55 1056.53 273.54C1055.1 273.54 1053.67 273.55 1052.25 273.39C1050.67 273.21 1049.64 272.23 1049.38 270.64C1049.2 269.52 1049.14 268.37 1049.14 267.23C1049.12 255.09 1049.13 242.95 1049.13 230.81C1049.13 230.1 1049.13 229.38 1049.19 228.67C1049.45 225.48 1050.28 224.61 1053.37 224.43C1054.79 224.35 1056.23 224.38 1057.65 224.38C1096.08 224.38 1134.51 224.38 1172.94 224.38C1193.23 224.38 1213.51 224.38 1233.8 224.38C1235.37 224.38 1236.95 224.36 1238.51 224.46C1241.09 224.62 1242.03 225.56 1242.29 228.15C1242.38 229 1242.36 229.86 1242.36 230.72C1242.36 242.86 1242.37 255 1242.35 267.14C1242.35 268.28 1242.34 269.44 1242.15 270.56C1241.89 272.11 1240.94 273.17 1239.33 273.35C1237.92 273.51 1236.48 273.53 1235.06 273.53C1217.2 273.54 1199.34 273.53 1181.48 273.55C1179.77 273.55 1178.05 273.58 1176.35 273.73C1174.75 273.87 1173.68 274.8 1173.48 276.43C1173.29 277.98 1173.21 279.56 1173.21 281.12C1173.19 295.4 1173.2 309.69 1173.2 323.97C1173.2 344.26 1173.2 364.54 1173.2 384.82Z" fill="#0A0A0A"/>
<path d="M0 3.23999C2.34 3.93999 3.16 5.37999 4.24 6.45999C17.12 19.24 29.87 32.15 42.85 44.82C56.66 58.3 70.97 71.23 86.27 83.01C99.55 93.23 113.54 102.31 128.91 109.14C142.17 115.04 155.99 118.93 170.36 120.99C182.28 122.7 194.24 123.18 206.26 122.87C225.86 122.36 245.28 120.1 264.59 116.79C278.52 114.4 292.4 111.73 306.34 109.41C314.08 108.13 321.9 107.32 329.69 106.3C342.18 104.67 354.76 104.33 367.32 104.08C375.59 103.91 383.89 104.26 392.16 104.8C403.71 105.56 415.15 107.17 426.5 109.54C467.84 118.18 502.15 138.57 529.43 170.8C538.21 181.18 546.22 192.12 553.57 203.55C560.37 214.12 566.99 224.8 573.67 235.45C574.08 236.11 574.3 236.89 574.9 238.29C573.77 237.83 573.23 237.75 572.88 237.45C571.8 236.52 570.78 235.51 569.76 234.52C557.14 222.3 544.54 210.04 531.89 197.85C521.8 188.13 511.33 178.84 500.21 170.31C492.03 164.04 483.45 158.4 474.16 153.88C461.15 147.54 447.39 144.2 432.99 143.04C417.95 141.83 403.02 142.87 388.1 144.63C365.68 147.27 343.5 151.36 321.35 155.67C306.21 158.61 291.01 161.11 275.7 163.07C260.24 165.05 244.73 166.33 229.16 166.79C218.3 167.11 207.46 166.68 196.63 165.71C185.66 164.73 174.82 163.04 164.1 160.49C136.68 153.96 112.7 141.03 91.95 122.01C80.01 111.06 69.37 98.92 59.66 86C50.74 74.13 42.16 61.99 33.42 49.99C23.33 36.14 13.22 22.3 3.12 8.45C2.06 6.98 0.79 5.63999 0 3.23999Z" fill="#0A0A0A"/>
<path d="M1266.91 311.6C1267.68 309.81 1268.19 308.51 1268.79 307.24C1272.25 299.87 1275.74 292.52 1279.17 285.15C1279.75 283.89 1280.74 282.73 1280.44 280.86C1279.94 280.69 1279.32 280.32 1278.69 280.3C1275.55 280.23 1272.4 280.27 1269.26 280.24C1268.26 280.23 1267.25 280.24 1266.28 280.05C1264.9 279.78 1263.98 278.89 1263.8 277.45C1263.68 276.46 1263.66 275.46 1263.66 274.46C1263.65 259.75 1263.64 245.03 1263.66 230.32C1263.67 225.19 1264.27 224.56 1269.24 224.55C1284.1 224.53 1298.96 224.53 1313.82 224.55C1318.49 224.56 1319.3 225.36 1319.31 230.07C1319.34 245.07 1319.3 260.07 1319.34 275.07C1319.35 277.18 1318.78 278.9 1317.43 280.56C1309.31 290.53 1301.25 300.55 1293.23 310.59C1292.24 311.83 1291.11 312.44 1289.59 312.44C1282.87 312.43 1276.16 312.44 1269.44 312.38C1268.79 312.37 1268.13 311.99 1266.91 311.6Z" fill="#0A0A0A"/>
</g>
<defs>
<clipPath id="clip0_12_3">
<rect width="1761" height="690" fill="white"/>
</clipPath>
</defs>
</svg>
